I ripped this movie for some time ago and recently found it...
If you encounter any problems just comment :)

Here is some details about the video file:


Format                                   : MPEG-4
Format profile                           : Base Media
Codec ID                                 : isom
File size                                : 919 MiB
Duration                                 : 1h 22mn
Overall bit rate mode                    : Variable
Overall bit rate                         : 1 559 Kbps

Video
ID                                       : 1
Format                                   : AVC
Format/Info                              : Advanced Video Codec
Format profile                           : Baseline@L5.1
Format settings, CABAC                   : No
Format settings, ReFrames                : 1 frame
Format settings, GOP                     : M=1, N=12
Codec ID                                 : avc1
Codec ID/Info                            : Advanced Video Coding
Duration                                 : 1h 22mn
Bit rate                                 : 1 395 Kbps
Width                                    : 1 280 pixels
Height                                   : 720 pixels
Display aspect ratio                     : 16:9
Frame rate mode                          : Constant
Frame rate                               : 25.000 fps
Color space                              : YUV
Chroma subsampling                       : 4:2:0
Bit depth                                : 8 bits
Scan type                                : Progressive
Bits/(Pixel*Frame)                       : 0.061
Stream size                              : 822 MiB (89%)

Audio
ID                                       : 2
Format                                   : AAC
Format/Info                              : Advanced Audio Codec
Format profile                           : LC
Codec ID                                 : 40
Duration                                 : 1h 22mn
Bit rate mode                            : Variable
Bit rate                                 : 160 Kbps
Channel(s)                               : 2 channels
Channel positions                        : Front: L R
Sampling rate                            : 48.0 KHz
Compression mode                         : Lossy
Stream size                              : 94.2 MiB (10%)
